HIERARCHY
ROOT Hips
{
	OFFSET 0.000000 71.427986 0.000000
	CHANNELS 6 Xposition Yposition Zposition Xrotation Yrotation Zrotation
	JOINT Pelvis
	{
		OFFSET 0.000000 0.000000 0.000000
		CHANNELS 3 Xrotation Yrotation Zrotation
		JOINT LeftUpLeg
		{
			OFFSET 6.797100 -2.508499 -1.318700
			CHANNELS 3 Xrotation Yrotation Zrotation
			JOINT LeftLeg
			{
				OFFSET 0.069008 -29.241863 0.690200
				CHANNELS 3 Xrotation Yrotation Zrotation
				JOINT LeftFoot
				{
					OFFSET -0.069008 -29.568123 -0.266800
					CHANNELS 3 Xrotation Yrotation Zrotation
					JOINT LeftToeBase
					{
						OFFSET 3.145500 -8.631000 16.059900
						CHANNELS 3 Xrotation Yrotation Zrotation
						End Site
						{
							OFFSET 0.000000 18.501587 0.000000
						}
					}
				}
			}
			JOINT Left_ShortSleeve
			{
				OFFSET 0.265923 -10.480953 1.153800
				CHANNELS 3 Xrotation Yrotation Zrotation
				End Site
				{
					OFFSET 1.725763 19.823879 0.000000
				}
			}
		}
		JOINT RightUpLeg
		{
			OFFSET -6.797100 -2.508499 -1.318700
			CHANNELS 3 Xrotation Yrotation Zrotation
			JOINT RightLeg
			{
				OFFSET -0.082453 -29.241932 0.688000
				CHANNELS 3 Xrotation Yrotation Zrotation
				JOINT RightFoot
				{
					OFFSET 0.082453 -29.568058 -0.264600
					CHANNELS 3 Xrotation Yrotation Zrotation
					JOINT RightToeBase
					{
						OFFSET -3.115300 -8.682800 16.113400
						CHANNELS 3 Xrotation Yrotation Zrotation
						End Site
						{
							OFFSET 0.000000 18.567114 0.000000
						}
					}
				}
			}
			JOINT Right_ShortSleeve
			{
				OFFSET -0.265923 -10.480953 1.153800
				CHANNELS 3 Xrotation Yrotation Zrotation
				End Site
				{
					OFFSET -1.725766 19.823910 0.000000
				}
			}
		}
	}
	JOINT Spine
	{
		OFFSET 0.000000 13.368103 0.470500
		CHANNELS 3 Xrotation Yrotation Zrotation
		JOINT Spine1
		{
			OFFSET 0.147000 13.837402 0.538800
			CHANNELS 3 Xrotation Yrotation Zrotation
			JOINT Spine2
			{
				OFFSET 0.168000 16.242897 -1.435500
				CHANNELS 3 Xrotation Yrotation Zrotation
				JOINT Neck
				{
					OFFSET 0.217200 18.631500 -1.679100
					CHANNELS 3 Xrotation Yrotation Zrotation
					JOINT Head
					{
						OFFSET 0.000000 6.599396 1.385900
						CHANNELS 3 Xrotation Yrotation Zrotation
						JOINT Hat
						{
							OFFSET -0.532200 27.220596 -10.096100
							CHANNELS 3 Xrotation Yrotation Zrotation
							End Site
							{
								OFFSET 0.000000 22.029861 0.000000
							}
						}
						JOINT HairD
						{
							OFFSET -10.777400 17.437393 -1.325900
							CHANNELS 3 Xrotation Yrotation Zrotation
							JOINT HairD1
							{
								OFFSET -3.290299 -11.051193 1.062200
								CHANNELS 3 Xrotation Yrotation Zrotation
								End Site
								{
									OFFSET 0.000000 11.579437 0.000000
								}
							}
						}
						JOINT HairB
						{
							OFFSET -10.777400 17.437393 1.467900
							CHANNELS 3 Xrotation Yrotation Zrotation
							JOINT HairB1
							{
								OFFSET -1.561200 -12.956299 3.590200
								CHANNELS 3 Xrotation Yrotation Zrotation
								End Site
								{
									OFFSET 0.000000 13.534866 0.000000
								}
							}
						}
						JOINT HairA
						{
							OFFSET 9.713100 17.437393 1.467900
							CHANNELS 3 Xrotation Yrotation Zrotation
							JOINT HairA1
							{
								OFFSET 1.561200 -12.956299 3.590200
								CHANNELS 3 Xrotation Yrotation Zrotation
								End Site
								{
									OFFSET 0.000000 13.534866 0.000000
								}
							}
						}
						JOINT HairC
						{
							OFFSET 9.713100 17.437393 -1.325900
							CHANNELS 3 Xrotation Yrotation Zrotation
							JOINT HairC1
							{
								OFFSET 3.290300 -11.051193 1.062200
								CHANNELS 3 Xrotation Yrotation Zrotation
								End Site
								{
									OFFSET 0.000000 11.579437 0.000000
								}
							}
						}
					}
				}
				JOINT LeftShoulder
				{
					OFFSET 5.101800 15.108002 -2.763700
					CHANNELS 3 Xrotation Yrotation Zrotation
					JOINT LeftArm
					{
						OFFSET 9.825497 2.506317 -1.597400
						CHANNELS 3 Xrotation Yrotation Zrotation
						JOINT LeftForeArm
						{
							OFFSET 21.966244 0.000000 0.000000
							CHANNELS 3 Xrotation Yrotation Zrotation
							JOINT LeftHand
							{
								OFFSET 33.879036 0.000000 0.000000
								CHANNELS 3 Xrotation Yrotation Zrotation
								JOINT LeftHandThumb1
								{
									OFFSET 6.715286 -2.359680 3.363841
									CHANNELS 3 Xrotation Yrotation Zrotation
									JOINT LeftHandThumb2
									{
										OFFSET 2.507072 -1.447464 1.447461
										CHANNELS 3 Xrotation Yrotation Zrotation
										JOINT LeftHandThumb3
										{
											OFFSET 2.898338 -1.673355 1.673357
											CHANNELS 3 Xrotation Yrotation Zrotation
											End Site
											{
												OFFSET -0.295959 3.727692 -0.131651
											}
										}
									}
								}
								JOINT LeftHandIndex1
								{
									OFFSET 14.190811 -0.254547 3.840278
									CHANNELS 3 Xrotation Yrotation Zrotation
									JOINT LeftHandIndex2
									{
										OFFSET 3.551727 0.000000 -0.000000
										CHANNELS 3 Xrotation Yrotation Zrotation
										JOINT LeftHandIndex3
										{
											OFFSET 2.894196 0.000000 0.000000
											CHANNELS 3 Xrotation Yrotation Zrotation
											End Site
											{
												OFFSET -1.000603 2.690872 0.366626
											}
										}
									}
								}
								JOINT LeftHandMiddle1
								{
									OFFSET 13.776489 0.000000 0.000000
									CHANNELS 3 Xrotation Yrotation Zrotation
									JOINT LeftHandMiddle2
									{
										OFFSET 3.438232 0.000000 0.000000
										CHANNELS 3 Xrotation Yrotation Zrotation
										JOINT LeftHandMiddle3
										{
											OFFSET 3.691551 0.000000 0.000000
											CHANNELS 3 Xrotation Yrotation Zrotation
											End Site
											{
												OFFSET -1.082298 3.499527 0.457670
											}
										}
									}
								}
								JOINT LeftHandRing1
								{
									OFFSET 13.966164 -0.268127 -3.067488
									CHANNELS 3 Xrotation Yrotation Zrotation
									JOINT LeftHandRing2
									{
										OFFSET 3.162567 0.000000 0.000000
										CHANNELS 3 Xrotation Yrotation Zrotation
										JOINT LeftHandRing3
										{
											OFFSET 3.324348 0.000000 0.000000
											CHANNELS 3 Xrotation Yrotation Zrotation
											End Site
											{
												OFFSET -0.861900 3.184998 0.405154
											}
										}
									}
								}
								JOINT LeftHandPinky1
								{
									OFFSET 13.131393 -0.168503 -5.746925
									CHANNELS 3 Xrotation Yrotation Zrotation
									JOINT LeftHandPinky2
									{
										OFFSET 2.849182 0.000000 0.000000
										CHANNELS 3 Xrotation Yrotation Zrotation
										JOINT LeftHandPinky3
										{
											OFFSET 2.805038 0.000000 0.000000
											CHANNELS 3 Xrotation Yrotation Zrotation
											End Site
											{
												OFFSET -0.882500 2.642609 0.325652
											}
										}
									}
								}
							}
							JOINT Left_Sleeve
							{
								OFFSET 6.592125 -0.646545 0.805568
								CHANNELS 3 Xrotation Yrotation Zrotation
								End Site
								{
									OFFSET -0.000179 20.275787 -0.000000
								}
							}
						}
					}
				}
				JOINT RightShoulder
				{
					OFFSET -5.731700 15.108002 -2.763700
					CHANNELS 3 Xrotation Yrotation Zrotation
					JOINT RightArm
					{
						OFFSET -9.825497 2.506317 -1.597400
						CHANNELS 3 Xrotation Yrotation Zrotation
						JOINT RightForeArm
						{
							OFFSET -21.966242 0.000000 0.000000
							CHANNELS 3 Xrotation Yrotation Zrotation
							JOINT RightHand
							{
								OFFSET -33.879032 0.000000 0.000000
								CHANNELS 3 Xrotation Yrotation Zrotation
								JOINT RightHandThumb1
								{
									OFFSET -6.715286 -2.359680 3.363841
									CHANNELS 3 Xrotation Yrotation Zrotation
									JOINT RightHandThumb2
									{
										OFFSET -2.507072 -1.447464 1.447461
										CHANNELS 3 Xrotation Yrotation Zrotation
										JOINT RightHandThumb3
										{
											OFFSET -2.898338 -1.673355 1.673357
											CHANNELS 3 Xrotation Yrotation Zrotation
											End Site
											{
												OFFSET 0.295959 3.727692 -0.131651
											}
										}
									}
								}
								JOINT RightHandIndex1
								{
									OFFSET -14.190811 -0.254547 3.840278
									CHANNELS 3 Xrotation Yrotation Zrotation
									JOINT RightHandIndex2
									{
										OFFSET -3.551727 0.000000 -0.000000
										CHANNELS 3 Xrotation Yrotation Zrotation
										JOINT RightHandIndex3
										{
											OFFSET -2.894196 0.000000 0.000000
											CHANNELS 3 Xrotation Yrotation Zrotation
											End Site
											{
												OFFSET 1.000603 2.690872 0.366626
											}
										}
									}
								}
								JOINT RightHandMiddle1
								{
									OFFSET -13.776489 0.000000 0.000000
									CHANNELS 3 Xrotation Yrotation Zrotation
									JOINT RightHandMiddle2
									{
										OFFSET -3.438232 0.000000 0.000000
										CHANNELS 3 Xrotation Yrotation Zrotation
										JOINT RightHandMiddle3
										{
											OFFSET -3.691551 0.000000 0.000000
											CHANNELS 3 Xrotation Yrotation Zrotation
											End Site
											{
												OFFSET 1.082298 3.499527 0.457670
											}
										}
									}
								}
								JOINT RightHandRing1
								{
									OFFSET -13.966164 -0.268127 -3.067488
									CHANNELS 3 Xrotation Yrotation Zrotation
									JOINT RightHandRing2
									{
										OFFSET -3.162567 0.000000 0.000000
										CHANNELS 3 Xrotation Yrotation Zrotation
										JOINT RightHandRing3
										{
											OFFSET -3.324348 0.000000 0.000000
											CHANNELS 3 Xrotation Yrotation Zrotation
											End Site
											{
												OFFSET 0.861900 3.184998 0.405154
											}
										}
									}
								}
								JOINT RightHandPinky1
								{
									OFFSET -13.131393 -0.168503 -5.746925
									CHANNELS 3 Xrotation Yrotation Zrotation
									JOINT RightHandPinky2
									{
										OFFSET -2.849182 0.000000 0.000000
										CHANNELS 3 Xrotation Yrotation Zrotation
										JOINT RightHandPinky3
										{
											OFFSET -2.805038 0.000000 0.000000
											CHANNELS 3 Xrotation Yrotation Zrotation
											End Site
											{
												OFFSET 0.882500 2.642609 0.325652
											}
										}
									}
								}
							}
							JOINT Right_Sleeve
							{
								OFFSET -6.592125 -0.646545 0.805568
								CHANNELS 3 Xrotation Yrotation Zrotation
								End Site
								{
									OFFSET 0.000179 20.275787 -0.000000
								}
							}
						}
					}
				}
				JOINT Bind_Right_JacketString
				{
					OFFSET -3.534800 11.969597 7.200700
					CHANNELS 3 Xrotation Yrotation Zrotation
					JOINT Bind_Right_JacketString1
					{
						OFFSET -0.319900 -6.102600 2.794100
						CHANNELS 3 Xrotation Yrotation Zrotation
						End Site
						{
							OFFSET 0.000000 6.719452 0.000000
						}
					}
				}
				JOINT Bind_Left_JacketString
				{
					OFFSET 2.904800 11.969597 7.200700
					CHANNELS 3 Xrotation Yrotation Zrotation
					JOINT Bind_Left_JacketString1
					{
						OFFSET 0.364800 -5.904503 3.186800
						CHANNELS 3 Xrotation Yrotation Zrotation
						End Site
						{
							OFFSET 0.000000 6.719513 0.000000
						}
					}
				}
				JOINT HairE
				{
					OFFSET 5.915200 17.612701 -11.592200
					CHANNELS 3 Xrotation Yrotation Zrotation
					JOINT HairE1
					{
						OFFSET 0.289200 -7.171898 -1.284500
						CHANNELS 3 Xrotation Yrotation Zrotation
						End Site
						{
							OFFSET 0.000000 7.291756 0.000000
						}
					}
				}
				JOINT HairF
				{
					OFFSET -0.864800 17.612701 -11.592200
					CHANNELS 3 Xrotation Yrotation Zrotation
					JOINT HairF1
					{
						OFFSET 0.000000 -14.087097 -2.127501
						CHANNELS 3 Xrotation Yrotation Zrotation
						End Site
						{
							OFFSET 0.000000 14.246841 0.000000
						}
					}
				}
				JOINT HairG
				{
					OFFSET -8.087700 17.612701 -11.592200
					CHANNELS 3 Xrotation Yrotation Zrotation
					JOINT HairG1
					{
						OFFSET -0.293600 -6.081398 -0.910100
						CHANNELS 3 Xrotation Yrotation Zrotation
						End Site
						{
							OFFSET 0.000000 6.156120 0.000000
						}
					}
				}
			}
		}
	}
	JOINT Pouch
	{
		OFFSET 0.000000 4.394501 10.847300
		CHANNELS 3 Xrotation Yrotation Zrotation
		End Site
		{
			OFFSET 0.000000 21.880577 0.000000
		}
	}
	JOINT Bag
	{
		OFFSET -13.229000 4.813004 -0.593300
		CHANNELS 3 Xrotation Yrotation Zrotation
		End Site
		{
			OFFSET 0.000000 21.880577 0.000000
		}
	}
	JOINT OccupyGuyFacialAnim_Joint
	{
		OFFSET 1.000000 -70.206398 -1.655000
		CHANNELS 3 Xrotation Yrotation Zrotation
		End Site
		{
			OFFSET 0.000000 21.880577 0.000000
		}
	}
}
MOTION
Frames: 4
Frame Time: 0.033333
-1.672849 67.965584 0.199383 62.382174 -73.996705 62.217634 0.000000 -0.000000 0.000000 -37.976822 3.132791 0.401189 29.057370 1.439551 5.920031 -5.533992 0.780251 -6.190718 0.000000 -0.000001 0.000000 -0.000001 -0.000000 -0.000000 -39.046562 -4.180331 -6.248815 29.151285 5.740726 -0.523592 -4.874062 4.228526 2.959822 -0.000000 0.000001 0.000000 0.000001 -0.000000 -0.000000 7.767425 1.226896 1.158255 15.299036 2.230017 1.322007 15.310605 2.242084 1.305141 4.790836 1.240953 2.080494 10.107798 7.623543 3.799993 -0.000002 -0.000001 0.000000 -0.000002 -0.000001 0.000000 -0.000002 -0.000001 0.000001 -0.000002 -0.000001 0.000000 -0.000000 -0.000001 -0.000000 -0.000002 -0.000001 0.000000 -0.000000 -0.000001 -0.000000 -0.000002 -0.000001 0.000000 -0.000002 -0.000001 0.000000 -10.675623 -29.047142 -20.213866 -12.499998 -15.811709 -64.814151 0.000026 -57.700420 0.000038 -47.165147 47.563037 34.505204 21.817270 -10.537014 16.834328 14.287734 5.468962 16.273643 0.000004 -0.000000 -0.000001 -2.436543 -1.118889 -27.392299 6.241395 5.838060 -93.831677 0.000002 0.000001 -0.000003 -3.946822 0.614642 -44.455782 5.616894 5.846385 -87.702224 -0.000002 -0.000000 -0.000003 -1.387686 2.855863 -40.868922 6.488207 5.816396 -96.262193 -0.000002 0.000000 -0.000003 1.677027 6.539501 -33.824535 5.030085 5.793380 -81.920114 -0.000003 -0.000001 0.000001 -0.000002 0.000000 0.000001 -2.331985 16.302319 20.324551 -42.281268 9.569695 67.722179 0.000004 27.206477 0.000002 -20.336005 -31.200331 -1.823466 -4.896616 -21.001056 -24.132366 -15.931309 -14.443033 3.554788 -0.000000 0.000003 0.000002 0.570534 0.087426 -17.559090 2.902335 -4.314560 67.842234 -0.000000 0.000001 -0.000005 -3.075707 6.856767 18.099474 5.082673 -4.637731 95.247972 -0.000000 0.000000 -0.000001 -9.985783 10.197692 36.824654 4.506672 -4.654762 88.146221 0.000001 -0.000000 0.000003 -6.996002 1.660164 49.601332 1.053682 -2.952239 39.277126 0.000000 0.000000 0.000001 0.000000 -0.000001 -0.000000 -0.000002 -0.000000 -0.000000 -0.000002 -0.000001 -0.000001 -0.000002 -0.000000 -0.000000 -0.000002 -0.000000 -0.000000 -0.000002 -0.000000 -0.000000 -0.000002 -0.000001 -0.000001 -0.000002 -0.000000 -0.000000 -0.000002 -0.000000 -0.000000 -0.000002 -0.000000 -0.000000 -0.000002 -0.000001 -0.000001 0.000000 -0.000000 0.000000 0.000000 -0.000000 0.000000 0.000000 -0.000000 0.000000 
-1.686652 67.971581 0.139925 62.726825 -74.045145 62.539049 -0.000000 -0.000001 0.000000 -37.957660 3.175844 0.539468 29.041452 1.440625 5.897333 -5.536000 0.784033 -6.244415 0.000000 0.000001 -0.000000 -0.000001 -0.000001 -0.000000 -39.020826 -4.141236 -6.104388 29.108477 5.728002 -0.550945 -4.845641 4.242878 2.912533 0.000000 0.000000 -0.000000 -0.000001 -0.000000 0.000000 7.779080 1.228456 1.145162 15.308057 2.226947 1.310549 15.319838 2.236339 1.294794 4.778681 1.262724 2.013628 10.161328 7.659676 3.732964 0.000001 -0.000000 0.000001 0.000001 -0.000000 0.000001 0.000001 -0.000000 0.000001 0.000001 -0.000000 0.000001 0.000003 0.000000 0.000000 0.000001 -0.000000 0.000001 0.000003 0.000000 0.000000 0.000001 -0.000000 0.000001 0.000001 -0.000000 0.000001 -10.697714 -29.014104 -20.271604 -12.284325 -16.120266 -64.633670 -0.000020 -57.881461 -0.000012 -47.898071 47.352254 35.000171 21.702994 -10.733336 16.983926 14.275947 5.625002 16.356660 0.000001 -0.000000 -0.000001 -2.484817 -1.084769 -27.876907 6.225765 5.839061 -93.678196 0.000003 0.000001 0.000000 -3.992430 0.556152 -44.404125 5.621117 5.846556 -87.743718 -0.000002 0.000000 -0.000001 -1.437068 2.797977 -40.867040 6.494350 5.815743 -96.322914 -0.000001 0.000002 -0.000005 1.673487 6.535979 -33.774896 5.035886 5.794190 -81.977570 -0.000001 -0.000001 -0.000001 0.000001 -0.000001 -0.000000 -2.311778 16.269825 20.197727 -42.144330 9.572922 67.752997 0.000003 27.507856 -0.000000 -20.258152 -31.415506 -1.785080 -5.028067 -20.629471 -24.170880 -15.867906 -14.708855 3.715045 -0.000001 -0.000001 0.000001 0.525843 -0.035934 -17.222481 2.910584 -4.317916 67.951660 0.000000 0.000001 0.000002 -3.181331 6.819107 18.682441 5.093199 -4.636767 95.378052 0.000002 -0.000001 -0.000001 -10.038669 10.168033 37.010985 4.507924 -4.654789 88.161575 0.000001 0.000000 -0.000004 -7.431877 1.793298 50.509983 1.060568 -2.960621 39.410680 -0.000001 0.000001 0.000001 0.000001 0.000001 0.000000 0.000002 0.000000 -0.000000 0.000002 -0.000000 0.000001 0.000002 0.000000 -0.000000 0.000002 0.000000 -0.000000 0.000002 0.000000 -0.000000 0.000002 -0.000000 0.000001 0.000002 0.000000 -0.000000 0.000002 0.000000 -0.000000 0.000002 0.000000 -0.000000 0.000002 -0.000000 0.000001 -0.000000 -0.000001 0.000000 -0.000000 -0.000001 0.000000 -0.000000 -0.000001 0.000000 
-1.702763 67.979759 0.084186 63.194959 -74.093380 62.969611 0.000000 0.000000 -0.000000 -37.946625 3.198586 0.682553 29.021788 1.483446 5.889366 -5.542525 0.791026 -6.312813 0.000000 0.000000 -0.000000 0.000000 -0.000000 -0.000000 -38.987758 -4.071350 -5.911287 29.031801 5.712648 -0.615777 -4.802850 4.234152 2.891959 0.000000 -0.000001 -0.000000 0.000001 0.000000 -0.000000 7.783060 1.153049 1.111093 15.307410 2.186332 1.322657 15.316588 2.202785 1.308753 4.754389 1.295438 1.990714 10.168396 7.827766 3.607489 0.000000 0.000000 0.000000 0.000000 0.000000 0.000000 0.000000 0.000000 0.000000 0.000000 0.000000 0.000000 0.000002 0.000001 -0.000000 0.000000 0.000000 0.000000 0.000002 0.000001 -0.000000 0.000000 0.000000 0.000000 0.000000 0.000000 0.000000 -10.653002 -29.042166 -20.159607 -12.151927 -16.528981 -64.420159 -0.000009 -57.940372 -0.000020 -48.576889 47.280922 35.186512 21.674219 -10.720806 16.967320 14.309336 5.648622 16.312773 -0.000002 0.000001 0.000001 -2.511771 -1.037224 -28.254587 6.216763 5.839631 -93.589779 0.000001 -0.000000 -0.000000 -4.005100 0.572629 -44.547054 5.625275 5.846705 -87.784556 -0.000001 0.000000 0.000001 -1.462733 2.780310 -40.968318 6.496788 5.815457 -96.346799 -0.000002 -0.000000 -0.000004 1.671885 6.534418 -33.750379 5.039573 5.794716 -82.013988 -0.000002 -0.000002 0.000001 -0.000001 0.000003 0.000002 -2.296430 16.271923 20.084994 -41.897207 9.584277 67.709304 0.000008 27.951151 0.000002 -20.588543 -31.643249 -2.036470 -5.154691 -20.277375 -24.211366 -15.805215 -14.974596 3.873299 -0.000001 0.000000 0.000001 0.487284 -0.144763 -16.900958 2.918235 -4.320992 68.053416 0.000000 0.000001 -0.000003 -3.288086 6.794155 19.248474 5.099742 -4.636143 95.459209 -0.000001 -0.000000 0.000001 -10.109780 10.108955 37.294151 4.508256 -4.654793 88.165571 0.000001 0.000000 0.000000 -7.897090 1.910798 51.495033 1.066033 -2.967254 39.516316 0.000001 -0.000000 0.000000 -0.000000 0.000001 0.000001 -0.000000 -0.000000 -0.000000 -0.000000 0.000001 -0.000000 -0.000000 -0.000000 -0.000001 -0.000000 -0.000000 -0.000001 -0.000000 -0.000000 -0.000000 -0.000000 0.000001 -0.000000 -0.000000 -0.000000 -0.000001 -0.000000 -0.000000 -0.000001 -0.000000 -0.000000 -0.000000 -0.000000 0.000001 -0.000000 0.000000 0.000000 -0.000000 0.000000 0.000000 -0.000000 0.000000 0.000000 -0.000000 
-1.723223 67.989456 0.033815 63.844592 -74.159380 63.560552 0.000001 0.000000 -0.000000 -37.942217 3.207895 0.853163 29.022871 1.578282 5.880068 -5.570417 0.796343 -6.388619 0.000000 0.000000 -0.000000 -0.000002 -0.000000 -0.000000 -38.943635 -4.031898 -5.708814 28.913048 5.744053 -0.652693 -4.736058 4.251284 2.849228 0.000000 0.000000 0.000000 0.000002 0.000000 -0.000000 7.765068 0.994598 1.034406 15.287165 2.095278 1.335471 15.291453 2.122779 1.327082 4.766242 1.367364 1.926869 10.136924 8.105147 3.548599 -0.000001 0.000001 0.000001 -0.000001 0.000001 0.000001 -0.000001 0.000001 0.000001 -0.000001 0.000001 0.000001 0.000000 -0.000000 0.000000 -0.000001 0.000001 0.000001 0.000000 -0.000000 0.000000 -0.000001 0.000001 0.000001 -0.000001 0.000001 0.000001 -10.651772 -29.057626 -20.154732 -12.085642 -16.755403 -64.170891 0.000022 -57.936567 0.000019 -48.686627 47.654336 34.926756 21.744404 -10.483452 16.776879 14.377506 5.520166 16.150908 0.000004 -0.000002 0.000000 -2.520723 -0.974019 -28.562248 6.213927 5.839813 -93.561816 0.000004 0.000001 0.000002 -3.988544 0.654229 -44.858408 5.626591 5.846783 -87.797512 -0.000000 0.000001 0.000001 -1.470264 2.795514 -41.166042 6.495654 5.815594 -96.335665 0.000001 0.000003 -0.000000 1.671151 6.533805 -33.737549 5.042110 5.795073 -82.039253 0.000001 0.000001 -0.000001 -0.000002 -0.000002 0.000002 -2.271622 16.302832 19.886767 -41.714585 9.544285 67.758325 0.000011 28.183406 -0.000002 -21.312746 -31.702531 -2.589672 -5.282886 -19.950180 -24.257740 -15.726717 -15.271231 4.047169 0.000001 -0.000002 -0.000000 0.449727 -0.254697 -16.589059 2.925804 -4.324023 68.153882 0.000000 -0.000000 0.000002 -3.390901 6.776620 19.779804 5.103189 -4.635795 95.501747 0.000000 -0.000001 0.000003 -10.199911 10.029481 37.660809 4.508934 -4.654818 88.173815 0.000000 -0.000001 -0.000004 -8.370840 2.006020 52.509586 1.070281 -2.972388 39.598377 -0.000002 0.000001 -0.000001 -0.000000 0.000003 0.000002 -0.000003 0.000001 0.000001 -0.000003 0.000000 -0.000000 -0.000003 0.000001 0.000000 -0.000003 0.000001 0.000000 -0.000003 0.000001 0.000001 -0.000003 0.000000 -0.000000 -0.000003 0.000001 0.000000 -0.000003 0.000001 0.000000 -0.000003 0.000001 0.000001 -0.000003 0.000000 -0.000000 0.000001 0.000000 -0.000000 0.000001 0.000000 -0.000000 0.000001 0.000000 -0.000000 
